<svg width="21" height="21" viewBox="0 0 21 21" fill="none" xmlns="http://www.w3.org/2000/svg">
<path d="M3.9082 2.65277C3.0782 2.65277 2.4082 3.32277 2.4082 4.15077V17.1318C2.4082 17.9598 3.0792 18.6298 3.9082 18.6298H4.9082C5.7352 18.6298 6.4072 17.9598 6.4072 17.1318V4.15077C6.4072 3.32277 5.7352 2.65277 4.9072 2.65277H3.9082ZM8.9062 2.65277C8.0782 2.65277 7.4062 3.32277 7.4062 4.15077V17.1318C7.4062 17.9598 8.0782 18.6298 8.9062 18.6298H9.9062C10.7342 18.6298 11.4052 17.9598 11.4052 17.1318V4.15077C11.4052 3.32377 10.7342 2.65277 9.9052 2.65277H8.9062ZM16.1262 6.80977C16.0805 6.61181 15.9951 6.4252 15.8751 6.26125C15.7551 6.0973 15.6031 5.95943 15.4282 5.85601C15.2534 5.75259 15.0593 5.68576 14.8578 5.65959C14.6564 5.63342 14.4517 5.64845 14.2562 5.70377L13.5112 5.91377C13.1475 6.01709 12.8362 6.25395 12.6397 6.57695C12.4431 6.89995 12.3758 7.28526 12.4512 7.65577L14.4542 17.4548C14.4951 17.6534 14.5759 17.8416 14.6916 18.0082C14.8074 18.1747 14.9556 18.316 15.1275 18.4236C15.2994 18.5312 15.4914 18.6028 15.6917 18.6341C15.8921 18.6654 16.0967 18.6558 16.2932 18.6058L17.2782 18.3558C18.0682 18.1558 18.5522 17.3618 18.3702 16.5688L16.1262 6.80977Z" fill="white"/>
</svg>
