<svg width="25" height="25" viewBox="0 0 25 25" fill="none" xmlns="http://www.w3.org/2000/svg">
<path fill-rule="evenodd" clip-rule="evenodd" d="M12.4082 3.05277C10.7291 3.05246 9.07931 3.49255 7.62347 4.32912C6.16762 5.16569 4.95665 6.36947 4.11143 7.82031C3.26621 9.27115 2.8163 10.9183 2.80661 12.5974C2.79692 14.2764 3.22779 15.9287 4.05621 17.3892C4.61614 16.6614 5.33593 16.0723 6.15991 15.6671C6.9839 15.262 7.89001 15.0518 8.80821 15.0528H16.0082C16.9264 15.0518 17.8325 15.262 18.6565 15.6671C19.4805 16.0723 20.2003 16.6614 20.7602 17.3892C21.5886 15.9287 22.0195 14.2764 22.0098 12.5974C22.0001 10.9183 21.5502 9.27115 20.705 7.82031C19.8598 6.36947 18.6488 5.16569 17.1929 4.32912C15.7371 3.49255 14.0873 3.05246 12.4082 3.05277ZM21.9398 19.944C23.5442 17.8523 24.4121 15.2889 24.4082 12.6528C24.4082 6.02517 19.0358 0.652771 12.4082 0.652771C5.78061 0.652771 0.408217 6.02517 0.408217 12.6528C0.404255 15.2889 1.2721 17.8524 2.87661 19.944L2.87061 19.9656L3.29661 20.4612C4.42207 21.777 5.81947 22.8331 7.39249 23.5567C8.9655 24.2804 10.6767 24.6543 12.4082 24.6528C14.841 24.6572 17.2171 23.9182 19.2182 22.5348C20.0713 21.9453 20.8449 21.2484 21.5198 20.4612L21.9458 19.9656L21.9398 19.944ZM12.4082 5.45277C11.4534 5.45277 10.5378 5.83205 9.86262 6.50718C9.18749 7.18231 8.80821 8.09799 8.80821 9.05276C8.80821 10.0075 9.18749 10.9232 9.86262 11.5983C10.5378 12.2735 11.4534 12.6528 12.4082 12.6528C13.363 12.6528 14.2787 12.2735 14.9538 11.5983C15.6289 10.9232 16.0082 10.0075 16.0082 9.05276C16.0082 8.09799 15.6289 7.18231 14.9538 6.50718C14.2787 5.83205 13.363 5.45277 12.4082 5.45277Z" fill="white"/>
</svg>
