<svg width="25" height="25" viewBox="0 0 25 25" fill="none" xmlns="http://www.w3.org/2000/svg">
<path d="M22.3569 14.7679L21.0743 13.4801C21.2381 12.5415 21.2173 11.5822 21.0127 10.6508L22.2646 9.36303C22.3617 9.26009 22.4267 9.13336 22.4521 8.99716C22.4775 8.86096 22.4623 8.72073 22.4082 8.59231C21.8891 7.37235 21.122 6.26173 20.1508 5.32405C20.0559 5.23382 19.9375 5.16913 19.8077 5.13657C19.6779 5.10401 19.5414 5.10474 19.412 5.13868L17.524 5.59721C16.9427 5.1998 16.312 4.87212 15.6462 4.62161L15.1845 2.94358C15.1502 2.80748 15.0745 2.684 14.9668 2.58857C14.8591 2.49314 14.7243 2.42999 14.5791 2.407C13.9397 2.29292 13.2903 2.23738 12.6398 2.24115C11.8258 2.24439 11.0155 2.34602 10.2284 2.54358C10.0971 2.57498 9.97716 2.63964 9.88139 2.73069C9.78563 2.82174 9.71762 2.93577 9.6846 3.06065L9.19207 4.78746C8.64146 5.01993 8.1186 5.30774 7.63241 5.64599L5.76491 5.20697C5.63379 5.17438 5.49583 5.17623 5.36572 5.21231C5.23562 5.24839 5.11825 5.31735 5.02612 5.41185C4.00594 6.41952 3.22557 7.62396 2.73792 8.94352C2.69063 9.07107 2.68092 9.20848 2.70986 9.34089C2.7388 9.4733 2.80527 9.59566 2.90209 9.69474L4.19498 10.9728C4.12951 11.3829 4.09522 11.797 4.09237 12.2118C4.09237 12.5045 4.09237 12.7971 4.14367 13.0898L2.79948 14.5142C2.70902 14.6089 2.64626 14.7245 2.61745 14.8495C2.58865 14.9744 2.5948 15.1044 2.63531 15.2264C3.05697 16.5164 3.75579 17.709 4.6875 18.7288C4.78121 18.8336 4.90407 18.9111 5.042 18.9525C5.17993 18.9939 5.32735 18.9975 5.46734 18.9629L7.23223 18.5337C7.84977 19.0284 8.54144 19.4329 9.28442 19.7337L9.79747 21.48C9.837 21.6066 9.91092 21.7211 10.0118 21.8118C10.1127 21.9026 10.237 21.9665 10.3721 21.9971C11.1119 22.1561 11.8692 22.238 12.6295 22.241C13.2349 22.2351 13.8382 22.1795 14.4354 22.0751C14.5771 22.0513 14.7089 21.9903 14.8159 21.8989C14.9229 21.8075 15.0008 21.6894 15.0408 21.558L15.5231 19.9093C16.409 19.6079 17.2348 19.1659 17.9652 18.602L19.7711 18.9922C19.9066 19.0221 20.0481 19.0161 20.1801 18.9748C20.3122 18.9335 20.4299 18.8586 20.5202 18.7581C21.4197 17.8084 22.1166 16.7018 22.5724 15.4996C22.6092 15.3705 22.6087 15.2343 22.5707 15.1055C22.5328 14.9767 22.4589 14.86 22.3569 14.7679ZM12.7219 16.0069C12.2033 16.0161 11.688 15.9271 11.206 15.7452C10.7239 15.5632 10.2848 15.2918 9.91412 14.9469C9.54347 14.602 9.2487 14.1904 9.047 13.7361C8.84529 13.2818 8.74068 12.7939 8.73925 12.3007C8.73782 11.8076 8.8396 11.3192 9.03867 10.8638C9.23774 10.4084 9.53012 9.99531 9.89877 9.64844C10.2674 9.30158 10.705 9.02793 11.1859 8.84343C11.6669 8.65892 12.1817 8.56726 12.7003 8.57377C13.7372 8.57118 14.7326 8.96032 15.4677 9.65557C16.2028 10.3508 16.6173 11.2952 16.62 12.2811C16.6227 13.2669 16.2134 14.2133 15.4822 14.9123C14.751 15.6112 13.7577 16.0053 12.7208 16.0079" fill="white"/>
</svg>
