<svg width="26" height="26" viewBox="0 0 26 26" fill="none" xmlns="http://www.w3.org/2000/svg">
<path d="M0.483397 14.3128C0.486969 14.9519 0.72725 15.5632 1.15138 16.0124C1.57551 16.4615 2.14875 16.7117 2.745 16.7079L9.84909 16.6623L8.80076 22.1749C8.77895 22.2955 8.76845 22.4281 8.76919 22.5606C8.77195 23.0546 8.9656 23.5112 9.27092 23.8345L10.4695 25.0918L17.8215 17.1171C18.235 16.6687 18.4789 16.0647 18.4752 15.4021L18.4078 3.35462C18.4043 2.71558 18.164 2.10424 17.7398 1.65508C17.3157 1.20592 16.7425 0.955734 16.1462 0.959562L6.02965 1.02452C5.09668 1.03051 4.30196 1.638 3.96958 2.50759L0.622382 11.0229C0.522765 11.3006 0.468179 11.5901 0.46993 11.9033L0.483397 14.3128ZM25.1388 0.901824L20.6425 0.930693L20.7233 15.3877L25.2196 15.3588L25.1388 0.901824Z" fill="white"/>
</svg>
