<svg width="21" height="21" viewBox="0 0 21 21" fill="none" xmlns="http://www.w3.org/2000/svg">
<g clip-path="url(#clip0_256_653)">
<path d="M7.9082 4.40277C7.9082 5.39733 7.51311 6.35116 6.80985 7.05442C6.10659 7.75768 5.15276 8.15277 4.1582 8.15277C3.16364 8.15277 2.20981 7.75768 1.50655 7.05442C0.803291 6.35116 0.408203 5.39733 0.408203 4.40277C0.408203 3.40821 0.803291 2.45438 1.50655 1.75112C2.20981 1.04786 3.16364 0.652771 4.1582 0.652771C5.15276 0.652771 6.10659 1.04786 6.80985 1.75112C7.51311 2.45438 7.9082 3.40821 7.9082 4.40277ZM1.6582 4.40277C1.6582 5.06581 1.9216 5.7017 2.39044 6.17054C2.85928 6.63938 3.49516 6.90277 4.1582 6.90277C4.82124 6.90277 5.45713 6.63938 5.92597 6.17054C6.39481 5.7017 6.6582 5.06581 6.6582 4.40277C6.6582 3.73973 6.39481 3.10385 5.92597 2.635C5.45713 2.16616 4.82124 1.90277 4.1582 1.90277C3.49516 1.90277 2.85928 2.16616 2.39044 2.635C1.9216 3.10385 1.6582 3.73973 1.6582 4.40277Z" fill="white"/>
<path d="M11.6582 8.15277H12.2832C12.8896 8.1527 13.4753 8.37301 13.9313 8.77268C14.3873 9.17235 14.6825 9.72413 14.762 10.3253L18.6495 8.59777C18.8397 8.51299 19.0482 8.4771 19.2559 8.49338C19.4636 8.50965 19.6639 8.57758 19.8386 8.69097C20.0134 8.80437 20.157 8.95964 20.2565 9.14268C20.356 9.32571 20.4081 9.5307 20.4082 9.73902V19.0665C20.408 19.2747 20.3559 19.4795 20.2565 19.6624C20.157 19.8453 20.0135 20.0004 19.839 20.1138C19.6644 20.2272 19.4643 20.2951 19.2568 20.3115C19.0493 20.3279 18.8409 20.2923 18.6507 20.2078L14.762 18.4803C14.6825 19.0814 14.3873 19.6332 13.9313 20.0329C13.4753 20.4325 12.8896 20.6528 12.2832 20.6528H2.9082C2.24516 20.6528 1.60928 20.3894 1.14044 19.9205C0.671595 19.4517 0.408203 18.8158 0.408203 18.1528V10.6528C0.408203 9.98973 0.671595 9.35384 1.14044 8.885C1.60928 8.41616 2.24516 8.15277 2.9082 8.15277H11.6582ZM19.1582 19.0653V9.74027L14.7832 11.684V17.1215L19.1582 19.0653ZM1.6582 10.6528V18.1528C1.6582 18.4843 1.7899 18.8022 2.02432 19.0367C2.25874 19.2711 2.57668 19.4028 2.9082 19.4028H12.2832C12.6147 19.4028 12.9327 19.2711 13.1671 19.0367C13.4015 18.8022 13.5332 18.4843 13.5332 18.1528V10.6528C13.5332 10.3213 13.4015 10.0033 13.1671 9.76889C12.9327 9.53447 12.6147 9.40277 12.2832 9.40277H2.9082C2.57668 9.40277 2.25874 9.53447 2.02432 9.76889C1.7899 10.0033 1.6582 10.3213 1.6582 10.6528Z" fill="white"/>
<path d="M11.6582 8.15277C12.6528 8.15277 13.6066 7.75768 14.3099 7.05442C15.0131 6.35116 15.4082 5.39733 15.4082 4.40277C15.4082 3.40821 15.0131 2.45438 14.3099 1.75112C13.6066 1.04786 12.6528 0.652771 11.6582 0.652771C10.6636 0.652771 9.70981 1.04786 9.00655 1.75112C8.30329 2.45438 7.9082 3.40821 7.9082 4.40277C7.9082 5.39733 8.30329 6.35116 9.00655 7.05442C9.70981 7.75768 10.6636 8.15277 11.6582 8.15277ZM9.1582 4.40277C9.1582 3.73973 9.4216 3.10385 9.89044 2.635C10.3593 2.16616 10.9952 1.90277 11.6582 1.90277C12.3212 1.90277 12.9571 2.16616 13.426 2.635C13.8948 3.10385 14.1582 3.73973 14.1582 4.40277C14.1582 5.06581 13.8948 5.7017 13.426 6.17054C12.9571 6.63938 12.3212 6.90277 11.6582 6.90277C10.9952 6.90277 10.3593 6.63938 9.89044 6.17054C9.4216 5.7017 9.1582 5.06581 9.1582 4.40277Z" fill="white"/>
</g>
<defs>
<clipPath id="clip0_256_653">
<rect width="20" height="20" fill="white" transform="translate(0.408203 0.652771)"/>
</clipPath>
</defs>
</svg>
