<svg width="30" height="26" viewBox="0 0 30 26" fill="none" xmlns="http://www.w3.org/2000/svg">
<g clip-path="url(#clip0_330_244)">
<path d="M11.25 5.1875C11.25 6.4307 10.6574 7.62299 9.60248 8.50206C8.54758 9.38114 7.11684 9.875 5.625 9.875C4.13316 9.875 2.70242 9.38114 1.64752 8.50206C0.592632 7.62299 0 6.4307 0 5.1875C0 3.9443 0.592632 2.75201 1.64752 1.87294C2.70242 0.99386 4.13316 0.5 5.625 0.5C7.11684 0.5 8.54758 0.99386 9.60248 1.87294C10.6574 2.75201 11.25 3.9443 11.25 5.1875ZM1.875 5.1875C1.875 6.0163 2.27009 6.81116 2.97335 7.39721C3.67661 7.98326 4.63044 8.3125 5.625 8.3125C6.61956 8.3125 7.57339 7.98326 8.27665 7.39721C8.97991 6.81116 9.375 6.0163 9.375 5.1875C9.375 4.3587 8.97991 3.56384 8.27665 2.97779C7.57339 2.39174 6.61956 2.0625 5.625 2.0625C4.63044 2.0625 3.67661 2.39174 2.97335 2.97779C2.27009 3.56384 1.875 4.3587 1.875 5.1875Z" fill="#FB7800"/>
<path d="M16.875 9.875H17.8125C18.722 9.87491 19.6006 10.1503 20.2846 10.6499C20.9687 11.1495 21.4115 11.8392 21.5306 12.5906L27.3619 10.4312C27.6473 10.3253 27.96 10.2804 28.2715 10.3008C28.583 10.3211 28.8835 10.406 29.1456 10.5478C29.4078 10.6895 29.6232 10.8836 29.7724 11.1124C29.9216 11.3412 29.9999 11.5974 30 11.8578V23.5172C29.9997 23.7774 29.9215 24.0334 29.7724 24.262C29.6233 24.4906 29.408 24.6846 29.1461 24.8263C28.8843 24.968 28.5841 25.0529 28.2728 25.0735C27.9616 25.094 27.6491 25.0494 27.3638 24.9438L21.5306 22.7844C21.4115 23.5358 20.9687 24.2255 20.2846 24.7251C19.6006 25.2247 18.722 25.5001 17.8125 25.5H3.75C2.75544 25.5 1.80161 25.1708 1.09835 24.5847C0.395088 23.9987 0 23.2038 0 22.375V13C0 12.1712 0.395088 11.3763 1.09835 10.7903C1.80161 10.2042 2.75544 9.875 3.75 9.875H16.875ZM28.125 23.5156V11.8594L21.5625 14.2891V21.0859L28.125 23.5156ZM1.875 13V22.375C1.875 22.7894 2.07254 23.1868 2.42417 23.4799C2.77581 23.7729 3.25272 23.9375 3.75 23.9375H17.8125C18.3098 23.9375 18.7867 23.7729 19.1383 23.4799C19.49 23.1868 19.6875 22.7894 19.6875 22.375V13C19.6875 12.5856 19.49 12.1882 19.1383 11.8951C18.7867 11.6021 18.3098 11.4375 17.8125 11.4375H3.75C3.25272 11.4375 2.77581 11.6021 2.42417 11.8951C2.07254 12.1882 1.875 12.5856 1.875 13Z" fill="#FB7800"/>
<path d="M16.875 9.875C18.3668 9.875 19.7976 9.38114 20.8525 8.50206C21.9074 7.62299 22.5 6.4307 22.5 5.1875C22.5 3.9443 21.9074 2.75201 20.8525 1.87294C19.7976 0.99386 18.3668 0.5 16.875 0.5C15.3832 0.5 13.9524 0.99386 12.8975 1.87294C11.8426 2.75201 11.25 3.9443 11.25 5.1875C11.25 6.4307 11.8426 7.62299 12.8975 8.50206C13.9524 9.38114 15.3832 9.875 16.875 9.875ZM13.125 5.1875C13.125 4.3587 13.5201 3.56384 14.2233 2.97779C14.9266 2.39174 15.8804 2.0625 16.875 2.0625C17.8696 2.0625 18.8234 2.39174 19.5266 2.97779C20.2299 3.56384 20.625 4.3587 20.625 5.1875C20.625 6.0163 20.2299 6.81116 19.5266 7.39721C18.8234 7.98326 17.8696 8.3125 16.875 8.3125C15.8804 8.3125 14.9266 7.98326 14.2233 7.39721C13.5201 6.81116 13.125 6.0163 13.125 5.1875Z" fill="#FB7800"/>
</g>
<defs>
<clipPath id="clip0_330_244">
<rect width="30" height="25" fill="white" transform="translate(0 0.5)"/>
</clipPath>
</defs>
</svg>
