<svg width="20" height="21" viewBox="0 0 20 21" fill="none" xmlns="http://www.w3.org/2000/svg">
<path d="M3.88889 12.9121H16.1111V11.6824H3.88889V12.9121ZM3.88889 9.22293H16.1111V7.99321H3.88889V9.22293ZM3.88889 5.53376H16.1111V4.30403H3.88889V5.53376ZM20 21L16.5811 17.2161H1.79444C1.28333 17.2161 0.856667 17.0268 0.514445 16.648C0.172222 16.2693 0.000740741 15.7966 0 15.2301V1.986C0 1.42033 0.171482 0.948117 0.514445 0.569362C0.857408 0.190607 1.28407 0.000819816 1.79444 0H18.2056C18.7167 0 19.1433 0.189787 19.4856 0.569362C19.8278 0.948937 19.9993 1.42115 20 1.986V21ZM1.79444 15.9864H17.0556L18.8889 18.0081V1.986C18.8889 1.79745 18.8178 1.62406 18.6756 1.46583C18.5333 1.30761 18.3767 1.2289 18.2056 1.22972H1.79444C1.62407 1.22972 1.46741 1.30843 1.32444 1.46583C1.18148 1.62324 1.11037 1.79663 1.11111 1.986V15.2301C1.11111 15.4187 1.18222 15.5921 1.32444 15.7503C1.46667 15.9085 1.62333 15.9872 1.79444 15.9864Z" fill="white"/>
</svg>
