<svg width="19" height="18" viewBox="0 0 19 18" fill="none" xmlns="http://www.w3.org/2000/svg">
<path fill-rule="evenodd" clip-rule="evenodd" d="M3.23398 0.362091H3.16732C2.86198 0.362091 2.59932 0.362091 2.36732 0.416758C2.00817 0.502578 1.67978 0.686153 1.41856 0.947144C1.15733 1.20813 0.973461 1.53635 0.887318 1.89542C0.833984 2.12742 0.833984 2.38876 0.833984 2.69542V6.02876C0.833984 6.33409 0.833984 6.59676 0.888651 6.82876C0.974471 7.18791 1.15805 7.51629 1.41904 7.77752C1.68003 8.03874 2.00824 8.22261 2.36732 8.30876C2.59932 8.36209 2.86065 8.36209 3.16732 8.36209H6.50065C6.80598 8.36209 7.06865 8.36209 7.30065 8.30742C7.6598 8.2216 7.98818 8.03803 8.24941 7.77704C8.51064 7.51605 8.69451 7.18783 8.78065 6.82876C8.83398 6.59676 8.83398 6.33542 8.83398 6.02876V2.69542C8.83398 2.39009 8.83398 2.12742 8.77932 1.89542C8.6935 1.53627 8.50992 1.20789 8.24893 0.946665C7.98794 0.685439 7.65973 0.501568 7.30065 0.415424C7.06865 0.362091 6.80732 0.362091 6.50065 0.362091H6.43398H3.23398ZM2.67798 1.71409C2.73532 1.70076 2.82465 1.69542 3.23398 1.69542H6.43398C6.84465 1.69542 6.93265 1.69942 6.98998 1.71409C7.10976 1.74273 7.21926 1.80399 7.30634 1.89107C7.39342 1.97815 7.45468 2.08765 7.48332 2.20742C7.49665 2.26342 7.50065 2.35142 7.50065 2.76209V5.96209C7.50065 6.37276 7.49665 6.46076 7.48198 6.51809C7.45334 6.63786 7.39208 6.74736 7.305 6.83444C7.21792 6.92152 7.10842 6.98278 6.98865 7.01142C6.93398 7.02342 6.84598 7.02876 6.43398 7.02876H3.23398C2.82332 7.02876 2.73532 7.02476 2.67798 7.01009C2.55821 6.98145 2.44871 6.92019 2.36163 6.83311C2.27455 6.74603 2.21329 6.63653 2.18465 6.51676C2.17265 6.46209 2.16732 6.37409 2.16732 5.96209V2.76209C2.16732 2.35142 2.17132 2.26342 2.18598 2.20609C2.21463 2.08632 2.27588 1.97682 2.36296 1.88974C2.45005 1.80266 2.55954 1.7414 2.67932 1.71276M12.5673 0.362091H12.5007C12.1953 0.362091 11.9327 0.362091 11.7007 0.416758C11.3415 0.502578 11.0131 0.686153 10.7519 0.947144C10.4907 1.20813 10.3068 1.53635 10.2207 1.89542C10.1673 2.12742 10.1673 2.38876 10.1673 2.69542V6.02876C10.1673 6.33409 10.1673 6.59676 10.222 6.82876C10.3078 7.18791 10.4914 7.51629 10.7524 7.77752C11.0134 8.03874 11.3416 8.22261 11.7007 8.30876C11.9327 8.36209 12.194 8.36209 12.5007 8.36209H15.834C16.1393 8.36209 16.402 8.36209 16.634 8.30742C16.9931 8.2216 17.3215 8.03803 17.5827 7.77704C17.844 7.51605 18.0278 7.18783 18.114 6.82876C18.1673 6.59676 18.1673 6.33542 18.1673 6.02876V2.69542C18.1673 2.39009 18.1673 2.12742 18.1127 1.89542C18.0268 1.53627 17.8433 1.20789 17.5823 0.946665C17.3213 0.685439 16.9931 0.501568 16.634 0.415424C16.402 0.362091 16.1407 0.362091 15.834 0.362091H15.7673H12.5673ZM12.0113 1.71409C12.0687 1.70076 12.158 1.69542 12.5673 1.69542H15.7673C16.178 1.69542 16.266 1.69942 16.3233 1.71409C16.4431 1.74273 16.5526 1.80399 16.6397 1.89107C16.7268 1.97815 16.788 2.08765 16.8167 2.20742C16.83 2.26342 16.834 2.35142 16.834 2.76209V5.96209C16.834 6.37276 16.8287 6.46076 16.8153 6.51809C16.7867 6.63786 16.7254 6.74736 16.6383 6.83444C16.5513 6.92152 16.4418 6.98278 16.322 7.01142C16.266 7.02476 16.178 7.02876 15.7673 7.02876H12.5673C12.1567 7.02876 12.0687 7.02476 12.0113 7.01009C11.8915 6.98145 11.782 6.92019 11.695 6.83311C11.6079 6.74603 11.5466 6.63653 11.518 6.51676C11.506 6.46209 11.5007 6.37409 11.5007 5.96209V2.76209C11.5007 2.35142 11.5047 2.26342 11.5193 2.20609C11.548 2.08632 11.6092 1.97682 11.6963 1.88974C11.7834 1.80266 11.8929 1.7414 12.0127 1.71276M3.16732 9.69543H6.50065C6.80598 9.69543 7.06865 9.69543 7.30065 9.75009C7.6598 9.83591 7.98818 10.0195 8.24941 10.2805C8.51064 10.5415 8.69451 10.8697 8.78065 11.2288C8.83398 11.4608 8.83398 11.7221 8.83398 12.0288V15.3621C8.83398 15.6674 8.83398 15.9301 8.77932 16.1621C8.6935 16.5212 8.50992 16.8496 8.24893 17.1109C7.98794 17.3721 7.65973 17.5559 7.30065 17.6421C7.06865 17.6954 6.80732 17.6954 6.50065 17.6954H3.16732C2.86198 17.6954 2.59932 17.6954 2.36732 17.6408C2.00817 17.5549 1.67978 17.3714 1.41856 17.1104C1.15733 16.8494 0.973461 16.5212 0.887318 16.1621C0.833984 15.9301 0.833984 15.6688 0.833984 15.3621V12.0288C0.833984 11.7234 0.833984 11.4608 0.888651 11.2288C0.974471 10.8696 1.15805 10.5412 1.41904 10.28C1.68003 10.0188 2.00824 9.8349 2.36732 9.74876C2.59932 9.69543 2.86065 9.69543 3.16732 9.69543ZM3.23398 11.0288C2.82332 11.0288 2.73532 11.0328 2.67798 11.0474C2.55821 11.0761 2.44871 11.1373 2.36163 11.2244C2.27455 11.3115 2.21329 11.421 2.18465 11.5408C2.17265 11.5954 2.16732 11.6834 2.16732 12.0954V15.2954C2.16732 15.7061 2.17132 15.7941 2.18598 15.8514C2.21463 15.9712 2.27588 16.0807 2.36296 16.1678C2.45005 16.2549 2.55954 16.3161 2.67932 16.3448C2.73532 16.3581 2.82332 16.3621 3.23398 16.3621H6.43398C6.84465 16.3621 6.93265 16.3568 6.98998 16.3434C7.10976 16.3148 7.21926 16.2535 7.30634 16.1664C7.39342 16.0794 7.45468 15.9699 7.48332 15.8501C7.49665 15.7941 7.50065 15.7061 7.50065 15.2954V12.0954C7.50065 11.6848 7.49665 11.5968 7.48198 11.5394C7.45334 11.4197 7.39208 11.3102 7.305 11.2231C7.21792 11.136 7.10842 11.0747 6.98865 11.0461C6.93398 11.0341 6.84598 11.0288 6.43398 11.0288H3.23398ZM12.5673 9.69543H12.5007C12.1953 9.69543 11.9327 9.69543 11.7007 9.75009C11.3415 9.83591 11.0131 10.0195 10.7519 10.2805C10.4907 10.5415 10.3068 10.8697 10.2207 11.2288C10.1673 11.4608 10.1673 11.7221 10.1673 12.0288V15.3621C10.1673 15.6674 10.1673 15.9301 10.222 16.1621C10.3078 16.5212 10.4914 16.8496 10.7524 17.1109C11.0134 17.3721 11.3416 17.5559 11.7007 17.6421C11.9327 17.6968 12.1953 17.6968 12.5007 17.6968H15.834C16.1393 17.6968 16.402 17.6968 16.634 17.6421C16.9929 17.5561 17.321 17.3724 17.582 17.1114C17.8429 16.8504 18.0266 16.5223 18.1127 16.1634C18.1673 15.9314 18.1673 15.6688 18.1673 15.3634V12.0288C18.1673 11.7234 18.1673 11.4608 18.1127 11.2288C18.0268 10.8696 17.8433 10.5412 17.5823 10.28C17.3213 10.0188 16.9931 9.8349 16.634 9.74876C16.402 9.69543 16.1407 9.69543 15.834 9.69543H15.7673H12.5673ZM12.0113 11.0474C12.0687 11.0341 12.158 11.0288 12.5673 11.0288H15.7673C16.178 11.0288 16.266 11.0328 16.3233 11.0474C16.4431 11.0761 16.5526 11.1373 16.6397 11.2244C16.7268 11.3115 16.788 11.421 16.8167 11.5408C16.83 11.5968 16.834 11.6848 16.834 12.0954V15.2954C16.834 15.7061 16.8287 15.7941 16.8153 15.8514C16.7867 15.9712 16.7254 16.0807 16.6383 16.1678C16.5513 16.2549 16.4418 16.3161 16.322 16.3448C16.266 16.3581 16.178 16.3621 15.7673 16.3621H12.5673C12.1567 16.3621 12.0687 16.3568 12.0113 16.3434C11.8915 16.3148 11.782 16.2535 11.695 16.1664C11.6079 16.0794 11.5466 15.9699 11.518 15.8501C11.506 15.7954 11.5007 15.7074 11.5007 15.2954V12.0954C11.5007 11.6848 11.5047 11.5968 11.5193 11.5394C11.548 11.4197 11.6092 11.3102 11.6963 11.2231C11.7834 11.136 11.8929 11.0747 12.0127 11.0461" fill="#FB7800"/>
</svg>
