<svg width="24" height="24" viewBox="0 0 24 24" fill="none" xmlns="http://www.w3.org/2000/svg">
<path d="M24 10.8C24 10.1635 23.7701 9.55303 23.361 9.10294C22.9518 8.65286 22.3968 8.4 21.8182 8.4H14.9236L15.9709 2.916C15.9927 2.796 16.0036 2.664 16.0036 2.532C16.0036 2.04 15.8182 1.584 15.5236 1.26L14.3673 0L7.18909 7.896C6.78545 8.34 6.54545 8.94 6.54545 9.6V21.6C6.54545 22.2365 6.77532 22.847 7.18449 23.2971C7.59366 23.7471 8.14862 24 8.72727 24H18.5455C19.4509 24 20.2255 23.4 20.5527 22.536L23.8473 14.076C23.9455 13.8 24 13.512 24 13.2V10.8ZM0 24H4.36364V9.6H0V24Z" fill="white"/>
</svg>
