<svg width="17" height="17" viewBox="0 0 17 17" fill="none" xmlns="http://www.w3.org/2000/svg">
<path d="M1.9082 0.652771C1.0782 0.652771 0.408203 1.32277 0.408203 2.15077V15.1318C0.408203 15.9598 1.0792 16.6298 1.9082 16.6298H2.9082C3.7352 16.6298 4.4072 15.9598 4.4072 15.1318V2.15077C4.4072 1.32277 3.7352 0.652771 2.9072 0.652771H1.9082ZM6.9062 0.652771C6.0782 0.652771 5.4062 1.32277 5.4062 2.15077V15.1318C5.4062 15.9598 6.0782 16.6298 6.9062 16.6298H7.9062C8.7342 16.6298 9.4052 15.9598 9.4052 15.1318V2.15077C9.4052 1.32377 8.7342 0.652771 7.9052 0.652771H6.9062ZM14.1262 4.80977C14.0805 4.61181 13.9951 4.4252 13.8751 4.26125C13.7551 4.0973 13.6031 3.95943 13.4282 3.85601C13.2534 3.75259 13.0593 3.68576 12.8578 3.65959C12.6564 3.63342 12.4517 3.64845 12.2562 3.70377L11.5112 3.91377C11.1475 4.01709 10.8362 4.25395 10.6397 4.57695C10.4431 4.89995 10.3758 5.28526 10.4512 5.65577L12.4542 15.4548C12.4951 15.6534 12.5759 15.8416 12.6916 16.0082C12.8074 16.1747 12.9556 16.316 13.1275 16.4236C13.2994 16.5312 13.4914 16.6028 13.6917 16.6341C13.8921 16.6654 14.0967 16.6558 14.2932 16.6058L15.2782 16.3558C16.0682 16.1558 16.5522 15.3618 16.3702 14.5688L14.1262 4.80977Z" fill="white"/>
</svg>
