<svg width="21" height="21" viewBox="0 0 21 21" fill="none" xmlns="http://www.w3.org/2000/svg">
<path d="M20.3569 12.7679L19.0743 11.4801C19.2381 10.5415 19.2173 9.58216 19.0127 8.65083L20.2646 7.36303C20.3617 7.26009 20.4267 7.13336 20.4521 6.99716C20.4775 6.86096 20.4623 6.72073 20.4082 6.59231C19.8891 5.37235 19.122 4.26173 18.1508 3.32405C18.0559 3.23382 17.9375 3.16913 17.8077 3.13657C17.6779 3.10401 17.5414 3.10474 17.412 3.13868L15.524 3.59721C14.9427 3.1998 14.312 2.87212 13.6462 2.62161L13.1845 0.943579C13.1502 0.807478 13.0745 0.684001 12.9668 0.588571C12.8591 0.49314 12.7243 0.429987 12.5791 0.406998C11.9397 0.292919 11.2903 0.237381 10.6398 0.241146C9.82576 0.244393 9.01548 0.34602 8.22843 0.543582C8.09709 0.574975 7.97716 0.639637 7.88139 0.730688C7.78563 0.821739 7.71762 0.935771 7.6846 1.06065L7.19207 2.78746C6.64146 3.01993 6.1186 3.30774 5.63241 3.64599L3.76491 3.20697C3.63379 3.17438 3.49583 3.17623 3.36572 3.21231C3.23562 3.24839 3.11825 3.31735 3.02612 3.41185C2.00594 4.41952 1.22557 5.62396 0.737917 6.94352C0.690626 7.07107 0.680924 7.20848 0.709862 7.34089C0.7388 7.4733 0.805275 7.59566 0.902093 7.69474L2.19498 8.97278C2.12951 9.3829 2.09522 9.79698 2.09237 10.2118C2.09237 10.5045 2.09237 10.7971 2.14367 11.0898L0.799483 12.5142C0.709024 12.6089 0.646261 12.7245 0.617454 12.8495C0.588647 12.9744 0.594803 13.1044 0.635307 13.2264C1.05697 14.5164 1.75579 15.709 2.6875 16.7288C2.78121 16.8336 2.90407 16.9111 3.042 16.9525C3.17993 16.9939 3.32735 16.9975 3.46734 16.9629L5.23223 16.5337C5.84977 17.0284 6.54144 17.4329 7.28442 17.7337L7.79747 19.48C7.837 19.6066 7.91092 19.7211 8.01181 19.8118C8.11269 19.9026 8.23696 19.9665 8.37209 19.9971C9.1119 20.1561 9.86916 20.238 10.6295 20.241C11.2349 20.2351 11.8382 20.1795 12.4354 20.0751C12.5771 20.0513 12.7089 19.9903 12.8159 19.8989C12.9229 19.8075 13.0008 19.6894 13.0408 19.558L13.5231 17.9093C14.409 17.6079 15.2348 17.1659 15.9652 16.602L17.7711 16.9922C17.9066 17.0221 18.0481 17.0161 18.1801 16.9748C18.3122 16.9335 18.4299 16.8586 18.5202 16.7581C19.4197 15.8084 20.1166 14.7018 20.5724 13.4996C20.6092 13.3705 20.6087 13.2343 20.5707 13.1055C20.5328 12.9767 20.4589 12.86 20.3569 12.7679ZM10.7219 14.0069C10.2033 14.0161 9.68799 13.9271 9.20595 13.7452C8.72392 13.5632 8.28478 13.2918 7.91412 12.9469C7.54347 12.602 7.2487 12.1904 7.047 11.7361C6.84529 11.2818 6.74068 10.7939 6.73925 10.3007C6.73782 9.80761 6.8396 9.31915 7.03867 8.8638C7.23774 8.40845 7.53012 7.99531 7.89877 7.64844C8.26742 7.30158 8.70497 7.02793 9.18595 6.84343C9.66692 6.65892 10.1817 6.56726 10.7003 6.57377C11.7372 6.57118 12.7326 6.96032 13.4677 7.65557C14.2028 8.35082 14.6173 9.29524 14.62 10.2811C14.6227 11.2669 14.2134 12.2133 13.4822 12.9123C12.751 13.6112 11.7577 14.0053 10.7208 14.0079" fill="white"/>
</svg>
