<svg width="21" height="19" viewBox="0 0 21 19" fill="none" xmlns="http://www.w3.org/2000/svg">
<path d="M11.4082 5.86706H1.4082C0.858203 5.86706 0.408203 6.50991 0.408203 7.29563C0.408203 8.08134 0.858203 8.7242 1.4082 8.7242H11.4082C11.9582 8.7242 12.4082 8.08134 12.4082 7.29563C12.4082 6.50991 11.9582 5.86706 11.4082 5.86706ZM11.4082 0.152771H1.4082C0.858203 0.152771 0.408203 0.795628 0.408203 1.58134C0.408203 2.36706 0.858203 3.00991 1.4082 3.00991H11.4082C11.9582 3.00991 12.4082 2.36706 12.4082 1.58134C12.4082 0.795628 11.9582 0.152771 11.4082 0.152771ZM16.4082 11.5813V7.29563C16.4082 6.50991 15.9582 5.86706 15.4082 5.86706C14.8582 5.86706 14.4082 6.50991 14.4082 7.29563V11.5813H11.4082C10.8582 11.5813 10.4082 12.2242 10.4082 13.0099C10.4082 13.7956 10.8582 14.4385 11.4082 14.4385H14.4082V18.7242C14.4082 19.5099 14.8582 20.1528 15.4082 20.1528C15.9582 20.1528 16.4082 19.5099 16.4082 18.7242V14.4385H19.4082C19.9582 14.4385 20.4082 13.7956 20.4082 13.0099C20.4082 12.2242 19.9582 11.5813 19.4082 11.5813H16.4082ZM1.4082 14.4385H7.4082C7.9582 14.4385 8.4082 13.7956 8.4082 13.0099C8.4082 12.2242 7.9582 11.5813 7.4082 11.5813H1.4082C0.858203 11.5813 0.408203 12.2242 0.408203 13.0099C0.408203 13.7956 0.858203 14.4385 1.4082 14.4385Z" fill="white"/>
</svg>
